<svg xmlns="http://www.w3.org/2000/svg" width="24.316" height="24.316" viewBox="0 0 24.316 24.316">
    <g>
        <path fill="#162d40" d="M12.158 24.316A12.159 12.159 0 0 1 0 12.158 12.159 12.159 0 0 1 12.158 0a12.159 12.159 0 0 1 12.158 12.158 12.159 12.159 0 0 1-12.158 12.158z" transform="translate(0 0) translate(0 0)"/>
        <path fill="#f9fbfe" d="M103.272 100.482a3.111 3.111 0 0 1-.094.665 3.748 3.748 0 0 1-.2.646 2.528 2.528 0 0 1-1.15 1 3.495 3.495 0 0 1-2.248.448 4.076 4.076 0 0 1-.542-.118q-.3-.085-.448-.137t-.523-.193q-.377-.141-.462-.17a8.537 8.537 0 0 1-1.65-.782 15.833 15.833 0 0 1-4.525-4.525 8.537 8.537 0 0 1-.782-1.65q-.028-.085-.17-.462t-.193-.523q-.052-.146-.137-.448a4.075 4.075 0 0 1-.118-.542 3.494 3.494 0 0 1 .448-2.248 2.527 2.527 0 0 1 1-1.15 3.746 3.746 0 0 1 .646-.2A3.112 3.112 0 0 1 92.79 90a.528.528 0 0 1 .2.028q.17.057.5.716l.283.509q.183.33.33.6.151.269.292.5.028.038.165.236a2.634 2.634 0 0 1 .2.335.615.615 0 0 1 .066.269.782.782 0 0 1-.269.471 4.594 4.594 0 0 1-.584.518 5.669 5.669 0 0 0-.584.5.718.718 0 0 0-.269.434.638.638 0 0 0 .047.212 2.061 2.061 0 0 0 .08.193q.033.066.132.226t.108.179a9.343 9.343 0 0 0 3.855 3.855q.019.009.179.108t.226.132a2.061 2.061 0 0 0 .193.08.638.638 0 0 0 .212.047.718.718 0 0 0 .434-.269 5.671 5.671 0 0 0 .5-.584 4.6 4.6 0 0 1 .518-.584.782.782 0 0 1 .471-.269.614.614 0 0 1 .269.066 2.633 2.633 0 0 1 .335.2q.2.137.236.165.236.141.5.292t.6.33q.33.179.509.283.66.33.716.5a.528.528 0 0 1 .032.204z" transform="translate(0 0) translate(-84.478 -84.478)"/>
    </g>
</svg>
