<svg xmlns="http://www.w3.org/2000/svg" id="iconfinder_2018_social_media_popular_app_logo_instagram_3225191" width="24.316" height="24.316" viewBox="0 0 24.316 24.316">
    <defs>
        <style>
            .cls-2{fill:#fff}
        </style>
    </defs>
    <path id="Path_2809" fill="#162d40" d="M12.158 24.316A12.159 12.159 0 0 1 0 12.158 12.159 12.159 0 0 1 12.158 0a12.159 12.159 0 0 1 12.158 12.158 12.159 12.159 0 0 1-12.158 12.158z" transform="translate(0 0)"/>
    <g id="Group_1513" transform="translate(6.144 6.146)">
        <path id="Path_2810" d="M164.614 159.783c1.6 0 1.795.005 2.429.035a3.3 3.3 0 0 1 1.117.208 1.988 1.988 0 0 1 1.14 1.14 3.344 3.344 0 0 1 .208 1.117c.028.634.035.824.035 2.429s-.005 1.795-.035 2.429a3.3 3.3 0 0 1-.208 1.117 1.988 1.988 0 0 1-1.14 1.14 3.345 3.345 0 0 1-1.117.208c-.634.028-.824.035-2.429.035s-1.795-.005-2.429-.035a3.3 3.3 0 0 1-1.117-.208 1.988 1.988 0 0 1-1.14-1.14 3.344 3.344 0 0 1-.208-1.117c-.028-.634-.035-.824-.035-2.429s.005-1.795.035-2.429a3.3 3.3 0 0 1 .208-1.117 1.988 1.988 0 0 1 1.14-1.14 3.344 3.344 0 0 1 1.117-.208c.634-.03.824-.035 2.429-.035m0-1.083c-1.633 0-1.837.007-2.478.037a4.419 4.419 0 0 0-1.46.28 2.9 2.9 0 0 0-1.064.692 2.959 2.959 0 0 0-.694 1.066 4.446 4.446 0 0 0-.28 1.46c-.03.641-.037.846-.037 2.478s.007 1.837.037 2.478a4.419 4.419 0 0 0 .28 1.46 3.085 3.085 0 0 0 1.76 1.756 4.446 4.446 0 0 0 1.46.28c.641.03.846.037 2.478.037s1.837-.007 2.478-.037a4.419 4.419 0 0 0 1.46-.28 3.085 3.085 0 0 0 1.756-1.76 4.446 4.446 0 0 0 .28-1.46c.03-.641.037-.846.037-2.478s-.007-1.837-.037-2.478a4.42 4.42 0 0 0-.28-1.46 3.085 3.085 0 0 0-1.76-1.756 4.446 4.446 0 0 0-1.46-.28c-.639-.028-.844-.035-2.477-.035z" class="cls-2" transform="translate(-158.6 -158.7)"/>
        <path id="Path_2811" d="M327.788 324.7a3.088 3.088 0 1 0 3.088 3.088 3.088 3.088 0 0 0-3.088-3.088zm0 5.092a2 2 0 1 1 2-2 2 2 0 0 1-2 2.001z" class="cls-2" transform="translate(-321.774 -321.776)"/>
        <circle id="Ellipse_353" cx=".722" cy=".722" r=".722" class="cls-2" transform="translate(8.501 2.08)"/>
    </g>
</svg>
