<svg xmlns="http://www.w3.org/2000/svg" id="iconfinder_2018_social_media_popular_app_logo_linkedin_3225190" width="24.316" height="24.316" viewBox="0 0 24.316 24.316">
    <defs>
        <style>
            .cls-2{fill:#fff}
        </style>
    </defs>
    <path id="Path_2812" fill="#162d40" d="M12.158 24.316A12.159 12.159 0 0 1 0 12.158 12.159 12.159 0 0 1 12.158 0a12.159 12.159 0 0 1 12.158 12.158 12.159 12.159 0 0 1-12.158 12.158z" transform="translate(0 0)"/>
    <g id="Group_1515" transform="translate(6.379 6.402)">
        <g id="Group_1514">
            <path id="Path_2813" d="M173.787 178.445h2.341v7.534h-2.341zm1.171-3.745a1.358 1.358 0 1 1-1.358 1.358 1.357 1.357 0 0 1 1.358-1.358" class="cls-2" transform="translate(-173.6 -174.7)"/>
            <path id="Path_2814" d="M400.5 376.789h2.246v1.029h.032a2.458 2.458 0 0 1 2.216-1.217c2.371 0 2.81 1.561 2.81 3.588v4.134h-2.341v-3.663c0-.875-.016-2-1.217-2-1.219 0-1.406.951-1.406 1.934v3.727h-2.34z" class="cls-2" transform="translate(-396.503 -373.044)"/>
        </g>
    </g>
</svg>
