<svg xmlns="http://www.w3.org/2000/svg" width="24.316" height="24.316" viewBox="0 0 24.316 24.316">
    <g>
        <path fill="#162d40" d="M12.158 0a12.159 12.159 0 0 1 12.158 12.158 12.159 12.159 0 0 1-12.158 12.158A12.159 12.159 0 0 1 0 12.158 12.159 12.159 0 0 1 12.158 0z" transform="translate(0 0) translate(0 0)"/>
    </g>
    <g>
        <path fill="#4186fa" d="M191.735 256.885a7.585 7.585 0 0 0 7.5-7.748c0-.117 0-.236-.008-.352a5.46 5.46 0 0 0 1.316-1.41 5.107 5.107 0 0 1-1.513.429 2.716 2.716 0 0 0 1.159-1.505 5.174 5.174 0 0 1-1.673.66 2.581 2.581 0 0 0-3.729-.119 2.784 2.784 0 0 0-.763 2.6 7.41 7.41 0 0 1-5.433-2.845 2.78 2.78 0 0 0 .816 3.635 2.559 2.559 0 0 1-1.2-.34v.034a2.7 2.7 0 0 0 2.115 2.669 2.565 2.565 0 0 1-1.19.047 2.654 2.654 0 0 0 2.463 1.892 5.175 5.175 0 0 1-3.273 1.168 4.756 4.756 0 0 1-.627-.04 7.255 7.255 0 0 0 4.035 1.223" transform="translate(2.432 2.432) translate(-184.394 -241.766)"/>
        <path fill="none" d="M9.726 0a9.727 9.727 0 0 1 9.726 9.726 9.727 9.727 0 0 1-9.726 9.726A9.727 9.727 0 0 1 0 9.726 9.727 9.727 0 0 1 9.726 0z" transform="translate(2.432 2.432)"/>
    </g>
</svg>
